<?xml version="1.0" standalone="no"?>
<!DOCTYPE svg PUBLIC "-//W3C//DTD SVG 20010904//EN"
 "http://www.w3.org/TR/2001/REC-SVG-20010904/DTD/svg10.dtd">
<svg version="1.0" xmlns="http://www.w3.org/2000/svg"
 width="1080.000000pt" height="1080.000000pt" viewBox="0 0 1080.000000 1080.000000"
 preserveAspectRatio="xMidYMid meet">

<g transform="translate(0.000000,1080.000000) scale(0.100000,-0.100000)"
fill="#000000" stroke="none">
<path d="M497 4185 c-223 -61 -400 -233 -469 -455 l-23 -75 0 -1545 c0 -1282
2 -1554 14 -1600 35 -139 130 -287 234 -366 77 -58 132 -86 227 -116 l75 -23
1550 0 c1474 0 1553 1 1609 18 235 73 403 241 465 467 21 74 21 88 21 1611 0
1499 0 1538 -20 1613 -45 177 -171 335 -330 414 -157 77 -24 72 -1755 71
-1257 -1 -1559 -3 -1598 -14z m960 -1467 c-3 -7 -85 -202 -182 -433 -98 -231
-192 -456 -210 -500 l-33 -80 -81 -3 c-45 -2 -81 1 -81 6 0 4 27 71 59 147 32
77 123 293 201 480 79 187 149 352 157 368 13 26 16 27 94 27 61 0 80 -3 76
-12z m629 -13 c-3 -13 -46 -118 -94 -232 -49 -114 -142 -335 -207 -490 l-118
-283 -79 0 c-48 0 -78 4 -78 11 0 5 69 175 154 377 85 202 180 429 212 505
l57 137 80 0 c79 0 79 0 73 -25z m621 -21 c50 -14 173 -96 180 -120 2 -6 -25
-42 -60 -80 l-64 -69 -28 33 c-63 75 -183 97 -260 46 -79 -51 -115 -126 -115
-238 0 -83 28 -152 81 -203 42 -39 77 -53 135 -53 85 0 159 54 171 123 l6 37
-97 0 -96 0 0 75 0 75 200 0 200 0 0 -93 c0 -189 -75 -306 -242 -375 -53 -22
-78 -26 -159 -27 -91 0 -100 3 -171 37 -156 78 -248 228 -248 408 0 129 40
230 127 321 110 116 267 153 440 103z m750 -9 c116 -34 180 -134 171 -264 -8
-103 -59 -181 -142 -216 l-28 -12 132 -159 c73 -87 139 -167 148 -176 14 -17
8 -18 -114 -18 l-129 1 -125 161 -125 162 -3 -162 -2 -162 -100 0 -100 0 0
430 0 430 183 0 c134 0 197 -4 234 -15z m-2714 -652 c75 -67 41 -190 -58 -209
-76 -14 -155 64 -141 139 18 91 130 131 199 70z m585 -665 l3 -68 -141 0 -140
0 0 63 c0 35 3 67 6 70 4 4 66 5 138 4 l131 -2 3 -67z m332 2 l0 -71 -137 3
-138 3 -3 54 c-5 84 -10 81 143 81 l135 0 0 -70z m1200 0 l0 -71 -137 3 -138
3 -3 54 c-5 84 -10 81 143 81 l135 0 0 -70z m-955 -145 c46 -45 22 -134 -41
-149 -34 -9 -91 10 -104 34 -6 10 -10 37 -10 59 0 31 6 44 26 60 38 30 98 28
129 -4z m550 19 c50 -20 56 -120 8 -151 -33 -22 -98 -21 -122 1 -39 36 -31
128 13 146 25 10 78 12 101 4z m630 0 c26 -11 48 -62 40 -101 -12 -64 -105
-92 -156 -47 -35 32 -30 112 8 142 18 13 80 16 108 6z"/>
<path d="M3240 2419 l0 -112 62 6 c54 5 67 10 90 36 33 37 38 93 12 130 -21
30 -72 51 -124 51 l-40 0 0 -111z"/>
</g>
</svg>
